<?xml version="1.0" encoding="utf-8"?>
<!-- Generator: Adobe Illustrator 24.0.0, SVG Export Plug-In . SVG Version: 6.00 Build 0)  -->
<svg version="1.1" id="图层_1" xmlns="http://www.w3.org/2000/svg" xmlns:xlink="http://www.w3.org/1999/xlink" x="0px" y="0px"
	 viewBox="0 0 200 200" style="enable-background:new 0 0 200 200;" xml:space="preserve">
<style type="text/css">
	.st0{fill:url(#SVGID_1_);}
	.st1{fill:url(#SVGID_2_);}
	.st2{fill:url(#SVGID_3_);}
	.st3{fill:url(#SVGID_4_);}
	.st4{fill:url(#SVGID_5_);}
	.st5{fill:url(#SVGID_6_);}
	.st6{fill:url(#SVGID_7_);}
	.st7{fill:url(#SVGID_8_);}
	.st8{fill:url(#SVGID_9_);}
	.st9{fill:url(#SVGID_10_);}
	.st10{fill:url(#SVGID_11_);}
	.st11{fill:url(#SVGID_12_);}
	.st12{fill:url(#SVGID_13_);}
</style>
<g>
	<g>
		
			<linearGradient id="SVGID_1_" gradientUnits="userSpaceOnUse" x1="56.69" y1="137.6892" x2="56.69" y2="238.8588" gradientTransform="matrix(1 0 0 1 0 -98)">
			<stop  offset="0" style="stop-color:#0098A6"/>
			<stop  offset="1" style="stop-color:#002D4D"/>
		</linearGradient>
		<polygon class="st0" points="78.34,154.3 78.34,87.5 35.04,104.3 35.04,137.5 		"/>
		
			<linearGradient id="SVGID_2_" gradientUnits="userSpaceOnUse" x1="-23.1546" y1="141.6361" x2="186.0904" y2="263.4441" gradientTransform="matrix(1 0 0 1 0 -98)">
			<stop  offset="0" style="stop-color:#0098A6"/>
			<stop  offset="1" style="stop-color:#002D4D"/>
		</linearGradient>
		<polygon class="st1" points="164.94,87.5 169.54,136.68 100,180.96 35.04,137.5 100,100 		"/>
		
			<linearGradient id="SVGID_3_" gradientUnits="userSpaceOnUse" x1="-5.5002" y1="222.5406" x2="194.8892" y2="103.2076" gradientTransform="matrix(1 0 0 1 0 -98)">
			<stop  offset="0" style="stop-color:#0098A6"/>
			<stop  offset="1" style="stop-color:#002D4D"/>
		</linearGradient>
		<polygon class="st2" points="100,75 35.04,112.5 21.96,109.84 13.4,100 100,50 		"/>
		
			<linearGradient id="SVGID_4_" gradientUnits="userSpaceOnUse" x1="152.99" y1="111.136" x2="152.99" y2="213.8432" gradientTransform="matrix(1 0 0 1 0 -98)">
			<stop  offset="0" style="stop-color:#0098A6"/>
			<stop  offset="1" style="stop-color:#002D4D"/>
		</linearGradient>
		<polygon class="st3" points="164.94,112.5 164.94,37.5 141.04,42.5 143.3,125 		"/>
		
			<linearGradient id="SVGID_5_" gradientUnits="userSpaceOnUse" x1="90.26" y1="156.1782" x2="90.26" y2="118.9464" gradientTransform="matrix(1 0 0 1 0 -98)">
			<stop  offset="0" style="stop-color:#0098A6"/>
			<stop  offset="1" style="stop-color:#002D4D"/>
		</linearGradient>
		<polygon class="st4" points="100,62.5 102.18,25 78.34,25 78.34,62.5 		"/>
		
			<linearGradient id="SVGID_6_" gradientUnits="userSpaceOnUse" x1="47.21" y1="185.5" x2="47.21" y2="148.2682" gradientTransform="matrix(1 0 0 1 0 -98)">
			<stop  offset="0" style="stop-color:#0098A6"/>
			<stop  offset="1" style="stop-color:#002D4D"/>
		</linearGradient>
		<polygon class="st5" points="56.7,87.5 59.38,50 35.04,50 35.04,87.5 		"/>
		
			<linearGradient id="SVGID_7_" gradientUnits="userSpaceOnUse" x1="121.65" y1="109.2586" x2="121.65" y2="219.278" gradientTransform="matrix(1 0 0 1 0 -98)">
			<stop  offset="0" style="stop-color:#0098A6"/>
			<stop  offset="1" style="stop-color:#002D4D"/>
		</linearGradient>
		<polygon class="st6" points="100,100 100,25 143.3,36.5 143.3,125 		"/>
		
			<linearGradient id="SVGID_8_" gradientUnits="userSpaceOnUse" x1="109.58" y1="105.8988" x2="109.58" y2="248.8902" gradientTransform="matrix(1 0 0 1 0 -98)">
			<stop  offset="0" style="stop-color:#0098A6"/>
			<stop  offset="1" style="stop-color:#002D4D"/>
		</linearGradient>
		<polygon class="st7" points="121.64,137.5 121.64,62.5 97.52,68.74 100,150 		"/>
		
			<linearGradient id="SVGID_9_" gradientUnits="userSpaceOnUse" x1="78.35" y1="141.7622" x2="78.35" y2="271.3814" gradientTransform="matrix(1 0 0 1 0 -98)">
			<stop  offset="0" style="stop-color:#0098A6"/>
			<stop  offset="1" style="stop-color:#002D4D"/>
		</linearGradient>
		<polygon class="st8" points="56.7,125 56.7,50 100,66.96 100,150 		"/>
	</g>
	<g>
		
			<linearGradient id="SVGID_10_" gradientUnits="userSpaceOnUse" x1="140.241" y1="187.7331" x2="-286.2214" y2="-58.4849" gradientTransform="matrix(1 0 0 -1 0 202)">
			<stop  offset="0" style="stop-color:#26FFED"/>
			<stop  offset="0.3155" style="stop-color:#18C4CD"/>
			<stop  offset="0.6311" style="stop-color:#0B90B1"/>
			<stop  offset="0.869" style="stop-color:#0370A0"/>
			<stop  offset="1" style="stop-color:#006499"/>
		</linearGradient>
		<polygon class="st9" points="13.4,50 100,0 164.94,37.5 143.3,50 100,25 78.34,37.5 121.64,62.5 100,75 56.7,50 35.04,62.5 
			21.68,63.26 		"/>
		<g>
			
				<linearGradient id="SVGID_11_" gradientUnits="userSpaceOnUse" x1="-8.3753" y1="89.5712" x2="277.1045" y2="-75.2506" gradientTransform="matrix(1 0 0 -1 0 202)">
				<stop  offset="0" style="stop-color:#26FFED"/>
				<stop  offset="0.3155" style="stop-color:#18C4CD"/>
				<stop  offset="0.6311" style="stop-color:#0B90B1"/>
				<stop  offset="0.869" style="stop-color:#0370A0"/>
				<stop  offset="1" style="stop-color:#006499"/>
			</linearGradient>
			<polygon class="st10" points="100,175 35.04,137.5 35.04,112.5 13.4,100 13.4,150 100,200 105.36,185.6 			"/>
			
				<linearGradient id="SVGID_12_" gradientUnits="userSpaceOnUse" x1="14.9501" y1="138.6056" x2="295.2377" y2="-23.2186" gradientTransform="matrix(1 0 0 -1 0 202)">
				<stop  offset="0" style="stop-color:#26FFED"/>
				<stop  offset="0.3155" style="stop-color:#18C4CD"/>
				<stop  offset="0.6311" style="stop-color:#0B90B1"/>
				<stop  offset="0.869" style="stop-color:#0370A0"/>
				<stop  offset="1" style="stop-color:#006499"/>
			</linearGradient>
			<polygon class="st11" points="13.4,50 13.4,75 100,125 105.36,111.6 100.18,100.1 35.04,62.5 			"/>
		</g>
		
			<linearGradient id="SVGID_13_" gradientUnits="userSpaceOnUse" x1="-5.4876" y1="-8.9026" x2="254.4813" y2="141.1906" gradientTransform="matrix(1 0 0 -1 0 202)">
			<stop  offset="0" style="stop-color:#26FFED"/>
			<stop  offset="0.3155" style="stop-color:#18C4CD"/>
			<stop  offset="0.6311" style="stop-color:#0B90B1"/>
			<stop  offset="0.869" style="stop-color:#0370A0"/>
			<stop  offset="1" style="stop-color:#006499"/>
		</linearGradient>
		<polygon class="st12" points="100,200 186.6,150 186.6,50 100.18,100.1 100,125 164.94,87.5 164.94,137.5 100,175 		"/>
	</g>
</g>
</svg>
